<?xml version="1.0" encoding="UTF-8" standalone="no"?>
<!-- Created with Inkscape (http://www.inkscape.org/) -->

<svg
   width="420"
   height="1080"
   viewBox="0 0 111.125 285.75"
   version="1.1"
   id="svg3094"
   inkscape:version="1.1.1 (3bf5ae0d25, 2021-09-20)"
   sodipodi:docname="left.svg"
   xmlns:inkscape="http://www.inkscape.org/namespaces/inkscape"
   xmlns:sodipodi="http://sodipodi.sourceforge.net/DTD/sodipodi-0.dtd"
   xmlns:xlink="http://www.w3.org/1999/xlink"
   xmlns="http://www.w3.org/2000/svg"
   xmlns:svg="http://www.w3.org/2000/svg">
  <sodipodi:namedview
     id="namedview3096"
     pagecolor="#505050"
     bordercolor="#eeeeee"
     borderopacity="1"
     inkscape:pageshadow="0"
     inkscape:pageopacity="0"
     inkscape:pagecheckerboard="0"
     inkscape:document-units="px"
     showgrid="false"
     inkscape:snap-bbox="true"
     inkscape:bbox-paths="true"
     inkscape:bbox-nodes="true"
     inkscape:snap-bbox-edge-midpoints="true"
     inkscape:snap-bbox-midpoints="true"
     inkscape:object-paths="true"
     inkscape:snap-intersection-paths="true"
     inkscape:snap-smooth-nodes="true"
     inkscape:snap-midpoints="true"
     inkscape:snap-object-midpoints="true"
     inkscape:snap-center="true"
     inkscape:snap-text-baseline="true"
     inkscape:snap-page="true"
     units="px"
     inkscape:zoom="0.36390436"
     inkscape:cx="114.04095"
     inkscape:cy="541.35103"
     inkscape:window-width="1837"
     inkscape:window-height="1051"
     inkscape:window-x="1366"
     inkscape:window-y="0"
     inkscape:window-maximized="1"
     inkscape:current-layer="layer1" />
  <defs
     id="defs3091">
    <linearGradient
       inkscape:collect="always"
       xlink:href="#linearGradient134015"
       id="linearGradient134017"
       x1="409.99997"
       y1="498.31183"
       x2="0"
       y2="498.31183"
       gradientUnits="userSpaceOnUse"
       gradientTransform="matrix(0.27103661,0,0,0.26458333,-2e-6,7.8005165e-7)" />
    <linearGradient
       inkscape:collect="always"
       id="linearGradient134015">
      <stop
         style="stop-color:#00060d;stop-opacity:1;"
         offset="0"
         id="stop134011" />
      <stop
         style="stop-color:#00060d;stop-opacity:0;"
         offset="1"
         id="stop134013" />
    </linearGradient>
  </defs>
  <g
     inkscape:label="Layer 1"
     inkscape:groupmode="layer"
     id="layer1">
    <path
       style="display:inline;fill:#114d8b;fill-opacity:1;stroke:none;stroke-width:0.79375;paint-order:markers fill stroke"
       id="path55448-5"
       d="m 69.513,211.02033 c 3.1044,0.2775 6.20698,0.57472 9.31102,0.85638 2.81685,0.25559 3.17831,-3.72804 0.36146,-3.98363 v 0 c -3.21809,-0.29198 -6.43373,-0.6133 -9.6546,-0.87271 -2.8284,-0.0127 -2.84627,3.98732 -0.0179,3.99996 z" />
    <path
       style="display:inline;fill:#114d8b;fill-opacity:1;stroke:none;stroke-width:0.79375;paint-order:markers fill stroke"
       id="path55450-2"
       d="m 20.00041,118.25285 c 2.87857,3.76908 5.5932,7.65838 8.5178,11.39361 1.74407,2.2267 4.8931,-0.23979 3.14903,-2.46649 v 0 c -2.93466,-3.74537 -5.65009,-7.65184 -8.54423,-11.42698 -1.76767,-2.20802 -4.89027,0.29185 -3.1226,2.49986 z" />
    <path
       style="display:inline;fill:#114d8b;fill-opacity:1;stroke:none;stroke-width:0.79375;paint-order:markers fill stroke"
       id="path55452-5"
       d="m 87.33467,38.260261 c -3.77428,1.981139 -7.32576,4.373978 -10.85209,6.762488 -2.34162,1.586442 -0.0981,4.897996 2.24357,3.311552 v 0 c 3.30096,-2.236947 6.62966,-4.456774 10.12859,-6.374122 2.61623,-1.074849 1.09617,-4.774766 -1.52007,-3.699918 z" />
    <circle
       id="circle55456-4"
       style="display:inline;fill:#114d8b;stroke:none;stroke-width:0.264583"
       cx="26.478111"
       cy="251.50383"
       r="1.9285444" />
    <circle
       id="circle55460-7"
       style="display:inline;fill:#114d8b;stroke:none;stroke-width:0.264583"
       cx="87.589203"
       cy="108.69957"
       r="1.9285444" />
    <circle
       id="circle55464-4"
       style="display:inline;fill:#114d8b;stroke:none;stroke-width:0.264583"
       cx="38.295044"
       cy="45.373821"
       r="1.9285444" />
    <path
       style="display:inline;fill:#dd6911;fill-opacity:1;stroke:none;stroke-width:0.79375;paint-order:markers fill stroke"
       id="path55442-1"
       d="m 75.09006,157.92551 c -1.71201,2.18251 -3.34838,4.42236 -5.04415,6.61772 -1.72877,2.23861 1.4371,4.68345 3.16586,2.44484 v 0 c 1.71519,-2.22153 3.37193,-4.4867 5.10292,-6.69575 1.67358,-2.28016 -1.55104,-4.64696 -3.22463,-2.36681 z" />
    <path
       style="display:inline;fill:#dd6911;fill-opacity:1;stroke:none;stroke-width:0.79375;paint-order:markers fill stroke"
       id="path55444-3"
       d="m 58.63912,94.054062 c 2.89523,-0.937753 5.58899,-2.325265 8.25444,-3.77048 2.48644,-1.348184 0.57982,-4.864541 -1.90662,-3.516357 v 0 c -2.41093,1.307267 -4.83727,2.57841 -7.45131,3.442065 -2.71867,0.780285 -1.61517,4.62506 1.10349,3.844772 z" />
    <path
       style="display:inline;fill:#dd6911;fill-opacity:1;stroke:none;stroke-width:0.79375;paint-order:markers fill stroke"
       id="path55446-4"
       d="m 50.70913,22.801984 c 0.14025,3.474694 0.55748,6.931563 0.87388,10.393393 0.2575,2.81668 4.24088,2.452529 3.98339,-0.364151 v 0 c -0.30549,-3.340947 -0.7035,-6.677022 -0.85727,-10.029242 0,-2.828425 -4,-2.828425 -4,0 z" />
    <circle
       id="circle55480-6"
       style="display:inline;fill:#dd6911;fill-opacity:1;stroke:none;stroke-width:0.264583"
       cx="56.073029"
       cy="136.26685"
       r="1.9285444" />
    <circle
       id="circle55484-6"
       style="display:inline;fill:#dd6911;fill-opacity:1;stroke:none;stroke-width:0.264583"
       cx="93.135651"
       cy="20.646721"
       r="1.9285444" />
    <circle
       id="circle55488-2"
       style="display:inline;fill:#dd6911;fill-opacity:1;stroke:none;stroke-width:0.264583"
       cx="84.224365"
       cy="244.2083"
       r="1.9285444" />
    <circle
       id="circle55492-9"
       style="display:inline;fill:#dd6911;fill-opacity:1;stroke:none;stroke-width:0.264583"
       cx="29.054779"
       cy="184.12428"
       r="1.9285444" />
    <circle
       id="circle55496-8"
       style="display:inline;fill:#dd6911;fill-opacity:1;stroke:none;stroke-width:0.264583"
       cx="24.224709"
       cy="78.457291"
       r="1.9285444" />
    <path
       style="display:inline;fill:#dd6911;fill-opacity:1;stroke:none;stroke-width:0.79375;paint-order:markers fill stroke"
       id="path55440-4"
       d="m 31.62479,219.97693 c 2.18526,3.80729 4.25794,7.67231 6.76806,11.28016 0.30481,0.38965 0.60963,0.77931 0.91444,1.16896 1.74758,2.22395 4.89272,-0.2475 3.14514,-2.47145 v 0 c -0.25964,-0.32867 -0.51928,-0.65735 -0.77893,-0.98602 -2.5123,-3.59091 -4.52743,-7.47511 -6.74546,-11.24743 -1.59508,-2.33575 -4.89832,-0.0799 -3.30325,2.25578 z" />
    <rect
       style="display:inline;fill:url(#linearGradient134017);fill-opacity:1;stroke-width:0.803373;paint-order:markers fill stroke"
       id="rect105400"
       width="111.125"
       height="285.75"
       x="0"
       y="-4.3368087e-19" />
  </g>
</svg>
