<?xml version="1.0" encoding="UTF-8" standalone="no"?>
<!-- Created with Inkscape (http://www.inkscape.org/) -->

<svg
   width="28.555mm"
   height="26.547001mm"
   viewBox="0 0 28.555 26.547001"
   version="1.1"
   id="svg3949"
   xmlns="http://www.w3.org/2000/svg"
   xmlns:svg="http://www.w3.org/2000/svg">
  <defs
     id="defs3946" />
  <g
     id="layer1">
    <g
       id="g3916"
       transform="matrix(0.26458333,0,0,0.26458333,359.30963,-327.87011)">
      <path
         id="rect3401"
         style="fill:#dd6911;fill-opacity:1;stroke:none;stroke-width:3.74693;paint-order:markers fill stroke"
         d="m -1350.5996,1245.1727 c -1.5337,0 -3.0689,0.5885 -4.2442,1.7637 l -1.414,1.414 c -2.3504,2.3505 -2.3504,6.134 0,8.4844 l 32.5273,32.5274 -32.5273,32.5273 c -2.3504,2.3504 -2.3504,6.134 0,8.4844 l 1.414,1.414 c 2.3505,2.3505 6.136,2.3505 8.4864,0 l 32.5254,-32.5253 32.5273,32.5253 c 2.3504,2.3505 6.1359,2.3505 8.4863,0 l 1.4141,-1.414 c 2.3504,-2.3504 2.3504,-6.134 0,-8.4844 l -32.5273,-32.5273 32.5273,-32.5274 c 2.3504,-2.3504 2.3504,-6.1339 0,-8.4844 l -1.4141,-1.414 c -2.3504,-2.3504 -6.1359,-2.3504 -8.4863,0 l -32.5273,32.5254 -32.5254,-32.5254 c -1.1752,-1.1752 -2.7085,-1.7637 -4.2422,-1.7637 z" />
      <path
         id="path3399"
         style="display:inline;fill:#096eb9;fill-opacity:1;stroke-width:1.76701;paint-order:markers fill stroke"
         d="m -1300.2643,1239.1947 a 50.166248,50.166248 0 0 0 -50.166,50.168 50.166248,50.166248 0 0 0 50.166,50.166 50.166248,50.166248 0 0 0 50.168,-50.166 50.166248,50.166248 0 0 0 -50.168,-50.168 z m 0,11.545 a 38.622707,38.622707 0 0 1 38.623,38.623 38.622707,38.622707 0 0 1 -38.623,38.6211 38.622707,38.622707 0 0 1 -38.6211,-38.6211 38.622707,38.622707 0 0 1 38.6211,-38.623 z" />
      <path
         id="path3412"
         style="fill:#dd6911;fill-opacity:1;stroke:none;stroke-width:3.74693;paint-order:markers fill stroke"
         d="m -1316.0742,1301.5043 2.2422,-2.2422 32.5273,32.5254 c 2.3504,2.3505 6.136,2.3505 8.4864,0 l 1.414,-1.4141 c 2.3504,-2.3504 2.3504,-6.1339 0,-8.4843 l -32.5273,-32.5274 32.5273,-32.5273 c 2.3504,-2.3504 2.3504,-6.1339 0,-8.4844 l -1.414,-1.4141 c -2.3504,-2.3504 -6.136,-2.3504 -8.4864,0 l -32.5273,32.5254 -2.2422,-2.2422 z" />
    </g>
  </g>
</svg>
