<?xml version="1.0" encoding="UTF-8" standalone="no"?>
<!-- Created with Inkscape (http://www.inkscape.org/) -->

<svg
   width="420"
   height="1080"
   viewBox="0 0 111.125 285.75"
   version="1.1"
   id="svg3094"
   inkscape:version="1.1.1 (3bf5ae0d25, 2021-09-20)"
   sodipodi:docname="right.svg"
   xmlns:inkscape="http://www.inkscape.org/namespaces/inkscape"
   xmlns:sodipodi="http://sodipodi.sourceforge.net/DTD/sodipodi-0.dtd"
   xmlns:xlink="http://www.w3.org/1999/xlink"
   xmlns="http://www.w3.org/2000/svg"
   xmlns:svg="http://www.w3.org/2000/svg">
  <sodipodi:namedview
     id="namedview3096"
     pagecolor="#505050"
     bordercolor="#eeeeee"
     borderopacity="1"
     inkscape:pageshadow="0"
     inkscape:pageopacity="0"
     inkscape:pagecheckerboard="0"
     inkscape:document-units="px"
     showgrid="false"
     inkscape:snap-bbox="true"
     inkscape:bbox-paths="true"
     inkscape:bbox-nodes="true"
     inkscape:snap-bbox-edge-midpoints="true"
     inkscape:snap-bbox-midpoints="true"
     inkscape:object-paths="true"
     inkscape:snap-intersection-paths="true"
     inkscape:snap-smooth-nodes="true"
     inkscape:snap-midpoints="true"
     inkscape:snap-object-midpoints="true"
     inkscape:snap-center="true"
     inkscape:snap-text-baseline="true"
     inkscape:snap-page="true"
     units="px"
     inkscape:zoom="0.36390436"
     inkscape:cx="114.04095"
     inkscape:cy="513.87128"
     inkscape:window-width="1837"
     inkscape:window-height="1051"
     inkscape:window-x="1366"
     inkscape:window-y="0"
     inkscape:window-maximized="1"
     inkscape:current-layer="layer1" />
  <defs
     id="defs3091">
    <linearGradient
       inkscape:collect="always"
       xlink:href="#linearGradient128437"
       id="linearGradient128439"
       x1="1510.0001"
       y1="473.97943"
       x2="1920"
       y2="473.97943"
       gradientUnits="userSpaceOnUse"
       gradientTransform="matrix(0.27103668,0,0,0.26458333,-409.26543,2.8857422e-6)" />
    <linearGradient
       inkscape:collect="always"
       id="linearGradient128437">
      <stop
         style="stop-color:#00060d;stop-opacity:1;"
         offset="0"
         id="stop128433" />
      <stop
         style="stop-color:#00060d;stop-opacity:0;"
         offset="1"
         id="stop128435" />
    </linearGradient>
  </defs>
  <g
     inkscape:label="Layer 1"
     inkscape:groupmode="layer"
     id="layer1">
    <path
       style="display:inline;fill:#114d8b;fill-opacity:1;stroke:none;stroke-width:0.79375;paint-order:markers fill stroke"
       id="path55436-4"
       d="m 89.522586,56.008333 c 0.49075,4.67982 1.05545,9.35631 1.70945,14.01648 0.0918,0.60571 0.18357,1.21141 0.27533,1.81711 0.42394,2.79648 4.37875,2.19694 3.95483,-0.59953 v 0 c -0.0897,-0.59145 -0.17941,-1.18291 -0.26911,-1.77436 -0.64455,-4.57763 -1.19483,-9.17222 -1.68248,-13.76883 -0.21858,-2.81996 -4.20661,-2.51083 -3.98802,0.30913 z" />
    <path
       style="display:inline;fill:#114d8b;fill-opacity:1;stroke:none;stroke-width:0.79375;paint-order:markers fill stroke"
       id="path55438-7"
       d="m 37.230816,145.3837 c 2.83422,3.60758 5.94971,6.97457 9.2098,10.19754 1.25876,1.31166 2.70074,2.41987 4.05556,3.62502 2.11561,1.87729 4.77052,-1.11461 2.65491,-2.99191 v 0 c -1.30413,-1.15477 -2.68607,-2.22236 -3.89892,-3.4783 -3.12931,-3.09091 -6.11902,-6.32049 -8.84164,-9.77918 -1.71603,-2.24839 -4.89572,0.17844 -3.17971,2.42683 z" />
    <path
       style="display:inline;fill:#114d8b;fill-opacity:1;stroke:none;stroke-width:0.79375;paint-order:markers fill stroke"
       id="path55426-3"
       d="m 49.505076,216.17184 c 2.25311,4.51577 4.31176,9.12912 6.39911,13.72389 0.27797,0.64195 0.55594,1.28389 0.83391,1.92584 1.12429,2.59537 4.7947,1.00539 3.67043,-1.58998 v 0 c -0.28752,-0.66346 -0.57504,-1.32691 -0.86254,-1.99037 -2.13156,-4.6916 -4.23018,-9.40427 -6.54285,-14.00938 -1.37179,-2.4735 -4.86984,-0.5335 -3.49806,1.94 z" />
    <circle
       id="circle55468-4"
       style="display:inline;fill:#114d8b;stroke:none;stroke-width:0.264583"
       cx="79.983429"
       cy="262.73654"
       r="1.9285443" />
    <circle
       id="circle55472-3"
       style="display:inline;fill:#114d8b;stroke:none;stroke-width:0.264583"
       cx="23.825195"
       cy="43.693802"
       r="1.9285443" />
    <circle
       id="circle55476-0"
       style="display:inline;fill:#114d8b;stroke:none;stroke-width:0.264583"
       cx="97.267212"
       cy="226.05003"
       r="1.9285443" />
    <path
       style="display:inline;fill:#dd6911;fill-opacity:1;stroke:none;stroke-width:0.79375;paint-order:markers fill stroke"
       id="path55434-8"
       d="m 27.369796,19.143403 c 4.06255,4.3944 8.29046,8.62403 12.51175,12.86402 2.00038,1.94598 1.07207,1.02894 2.79006,2.74589 2.0008,1.99918 4.82809,-0.8304 2.82726,-2.82958 v 0 c -1.74133,-1.73956 -0.81511,-0.82535 -2.78271,-2.73853 -4.22354,-4.24195 -8.45163,-8.47533 -12.51796,-12.87026 -2.00001,-1.99998 -4.82841,0.82848 -2.8284,2.82846 z" />
    <path
       style="display:inline;fill:#dd6911;fill-opacity:1;stroke:none;stroke-width:0.79375;paint-order:markers fill stroke"
       id="path55432-6"
       d="m 37.345646,113.54531 c 2.91963,-1.18911 5.81036,-2.44399 8.70045,-3.70262 2.59321,-1.12933 0.99608,-4.79664 -1.5971,-3.66732 v 0 c -2.89848,1.26229 -5.79808,2.51954 -8.72556,3.71366 -2.58538,1.14707 -0.96319,4.80335 1.62221,3.65628 z" />
    <path
       style="display:inline;fill:#dd6911;fill-opacity:1;stroke:none;stroke-width:0.79375;paint-order:markers fill stroke"
       id="path55430-8"
       d="m 77.813856,108.54524 c 0.45265,3.75408 1.36006,7.42504 2.3401,11.06971 0.73533,2.73117 4.59777,1.69125 3.86244,-1.03992 v 0 c -0.91831,-3.40631 -1.76993,-6.83539 -2.21469,-10.34141 -0.22037,-2.81983 -4.2082,-2.50821 -3.98785,0.31162 z" />
    <path
       style="display:inline;fill:#dd6911;fill-opacity:1;stroke:none;stroke-width:0.79375;paint-order:markers fill stroke"
       id="path55428-8"
       d="m 79.687156,195.39835 c 2.34513,-1.85834 4.92704,-3.36878 7.26932,-5.2383 1.56919,-1.40507 3.02556,-2.94785 4.30014,-4.62475 0.18219,-0.2254 0.36441,-0.45079 0.54663,-0.67619 1.77498,-2.20214 -1.33932,-4.71234 -3.1143,-2.5102 v 0 c -0.21125,0.26276 -0.42252,0.52553 -0.63376,0.78829 -1.04534,1.42571 -2.31479,2.68821 -3.59746,3.89936 -2.36739,1.89875 -5.01036,3.3927 -7.35896,5.31217 -2.15641,1.83028 0.43198,4.87989 2.58839,3.04962 z" />
    <circle
       id="circle55512-9"
       style="display:inline;fill:#dd6911;fill-opacity:1;stroke:none;stroke-width:0.264583"
       cx="58.456726"
       cy="77.64798"
       r="1.9285443" />
    <circle
       id="circle55508-2"
       style="display:inline;fill:#dd6911;fill-opacity:1;stroke:none;stroke-width:0.264583"
       cx="48.683624"
       cy="260.91489"
       r="1.9285443" />
    <circle
       id="circle55504-0"
       style="display:inline;fill:#dd6911;fill-opacity:1;stroke:none;stroke-width:0.264583"
       cx="39.923096"
       cy="185.65253"
       r="1.9285443"
       inkscape:label="circle55504-0" />
    <circle
       id="circle55500-6"
       style="display:inline;fill:#dd6911;fill-opacity:1;stroke:none;stroke-width:0.264583"
       cx="97.579865"
       cy="132.8338"
       r="1.9285443" />
    <circle
       id="circle55516-4"
       style="display:inline;fill:#dd6911;fill-opacity:1;stroke:none;stroke-width:0.264583"
       cx="87.50708"
       cy="15.220688"
       r="1.9285443" />
    <rect
       style="display:inline;fill:url(#linearGradient128439);fill-opacity:1;stroke-width:0.803373;paint-order:markers fill stroke"
       id="rect105402"
       width="111.12501"
       height="285.75"
       x="0"
       y="0" />
  </g>
</svg>
