<?xml version="1.0" encoding="UTF-8" standalone="no"?>
<!-- Created with Inkscape (http://www.inkscape.org/) -->

<svg
   width="100.334"
   height="100.334"
   viewBox="0 0 26.546704 26.546705"
   version="1.1"
   id="svg3295"
   xmlns="http://www.w3.org/2000/svg"
   xmlns:svg="http://www.w3.org/2000/svg">
  <defs
     id="defs3292" />
  <g
     id="layer1">
    <path
       id="path21577"
       style="display:inline;fill:#1764b5;fill-opacity:1;stroke-width:0.467521;paint-order:markers fill stroke"
       d="M 13.273093,5.3488681e-7 A 13.273153,13.273153 0 0 0 2.8848865e-6,13.273617 13.273153,13.273153 0 0 0 13.273093,26.546704 13.273153,13.273153 0 0 0 26.546701,13.273617 13.273153,13.273153 0 0 0 13.273093,5.3488681e-7 Z m 0,3.05461396511319 A 10.218924,10.218924 0 0 1 23.492107,13.273617 10.218924,10.218924 0 0 1 13.273093,23.492116 10.218924,10.218924 0 0 1 3.0545963,13.273617 10.218924,10.218924 0 0 1 13.273093,3.0546145 Z" />
  </g>
</svg>
