<?xml version="1.0" encoding="UTF-8" standalone="no"?>
<!-- Created with Inkscape (http://www.inkscape.org/) -->

<svg
   width="88.377998"
   height="88.377998"
   viewBox="0 0 23.383345 23.383346"
   version="1.1"
   id="svg3553"
   xmlns="http://www.w3.org/2000/svg"
   xmlns:svg="http://www.w3.org/2000/svg">
  <defs
     id="defs3550" />
  <g
     id="layer1">
    <path
       id="rect31866"
       style="fill:#114d8b;fill-opacity:1;stroke:none;stroke-width:0.991;paint-order:markers fill stroke;stroke-miterlimit:4;stroke-dasharray:none"
       d="m 1.963069,-2.6330134e-4 c -0.4057967,0 -0.8114718,0.15569700134 -1.12241276,0.46663800134 l -0.3741367,0.374137 c -0.6218846,0.621884 -0.6218846,1.622947 0,2.244827 l 8.60619196,8.6061903 -8.60619196,8.60619 c -0.6218846,0.62189 -0.6218846,1.62295 0,2.24483 l 0.3741367,0.37465 c 0.62188196,0.62188 1.62294096,0.62188 2.24482286,0 l 8.6061949,-8.60619 8.606192,8.60619 c 0.621882,0.62188 1.622941,0.62188 2.244825,0 l 0.374137,-0.37465 c 0.621882,-0.62188 0.621882,-1.62294 0,-2.24483 l -8.606192,-8.60619 8.606192,-8.6061903 c 0.621882,-0.62188 0.621882,-1.622943 0,-2.244827 l -0.374137,-0.374137 c -0.621884,-0.621882 -1.622943,-0.621882 -2.244825,0 L 11.691674,9.0725687 3.0854791,0.4663747 C 2.7745381,0.1554337 2.3688631,-2.6330134e-4 1.963069,-2.6330134e-4 Z" />
  </g>
</svg>
