<?xml version="1.0" encoding="UTF-8" standalone="no"?>
<!-- Created with Inkscape (http://www.inkscape.org/) -->

<svg
   width="88.377998"
   height="88.377998"
   viewBox="0 0 23.383345 23.383346"
   version="1.1"
   id="svg3295"
   xmlns="http://www.w3.org/2000/svg"
   xmlns:svg="http://www.w3.org/2000/svg">
  <defs
     id="defs3292" />
  <g
     id="layer1">
    <path
       id="rect31866"
       style="fill:#dfcda7;fill-opacity:1;stroke:none;stroke-width:0.991375;paint-order:markers fill stroke"
       d="M 1.9631876,0 C 1.5573923,0 1.1517169,0.15518005 0.84077555,0.46612143 L 0.46612143,0.84077555 c -0.62188275,0.62188275 -0.62188275,1.62294145 0,2.24482405 L 9.0723142,11.691793 0.46612143,20.297986 c -0.62188276,0.621882 -0.62188276,1.622941 0,2.244824 l 0.37465412,0.374137 c 0.62188275,0.621883 1.62294155,0.621883 2.24482405,0 l 8.6061934,-8.606193 8.606193,8.606193 c 0.621882,0.621883 1.622941,0.621883 2.244824,0 l 0.374137,-0.374137 c 0.621883,-0.621883 0.621883,-1.622942 0,-2.244824 l -8.606193,-8.606193 8.606193,-8.6061934 c 0.621883,-0.6218825 0.621883,-1.6229413 0,-2.24482405 L 22.54281,0.46612143 C 22.231868,0.15518003 21.826193,0 21.420398,0 21.014602,0 20.608927,0.15518003 20.297986,0.46612143 L 11.691793,9.0723142 3.0855996,0.46612143 C 2.7746584,0.15518005 2.368983,0 1.9631876,0 Z" />
  </g>
</svg>
