<?xml version="1.0" encoding="UTF-8" standalone="no"?>
<svg
   id="Layer_1"
   data-name="Layer 1"
   viewBox="0 0 122.56 122.88"
   version="1.1"
   sodipodi:docname="dark_theme_icon.svg"
   inkscape:version="1.1.1 (3bf5ae0d25, 2021-09-20)"
   xmlns:inkscape="http://www.inkscape.org/namespaces/inkscape"
   xmlns:sodipodi="http://sodipodi.sourceforge.net/DTD/sodipodi-0.dtd"
   xmlns="http://www.w3.org/2000/svg"
   xmlns:svg="http://www.w3.org/2000/svg">
  <sodipodi:namedview
     id="namedview11"
     pagecolor="#505050"
     bordercolor="#eeeeee"
     borderopacity="1"
     inkscape:pageshadow="0"
     inkscape:pageopacity="0"
     inkscape:pagecheckerboard="0"
     showgrid="false"
     inkscape:zoom="5.8512371"
     inkscape:cx="61.354547"
     inkscape:cy="61.354547"
     inkscape:window-width="1837"
     inkscape:window-height="1051"
     inkscape:window-x="1366"
     inkscape:window-y="0"
     inkscape:window-maximized="1"
     inkscape:current-layer="Layer_1" />
  <defs
     id="defs4">
    <style
       id="style2">.cls-1{fill-rule:evenodd;}</style>
  </defs>
  <title
     id="title6">night</title>
  <path
     class="cls-1"
     d="M 114.62391,84.213134 A 56.634876,56.634876 0 1 1 39.794712,7.6842759 C 42.383834,6.47778 45.008184,8.4856725 43.731235,11.620802 A 49.57203,49.57203 0 0 0 110.4408,79.783444 l 0.43152,-0.237777 a 3.0030311,3.0030311 0 0 1 4.05982,4.059815 z M 88.741475,73.09047 H 88.336376 A 14.187341,14.187341 0 0 0 74.422037,59.228972 v -0.45794 a 13.280267,13.280267 0 0 0 9.687197,-4.156689 13.377139,13.377139 0 0 0 4.156689,-9.687198 h 0.449134 a 13.315493,13.315493 0 0 0 4.156689,9.687198 13.315493,13.315493 0 0 0 9.687194,4.156689 v 0.449133 A 14.204954,14.204954 0 0 0 88.741475,73.09047 Z m 8.885801,-41.029684 h -0.237777 a 6.9923949,6.9923949 0 0 0 -2.192827,-5.116601 6.9923949,6.9923949 0 0 0 -5.098987,-2.192829 v -0.237777 a 6.9923949,6.9923949 0 0 0 5.098987,-2.210441 7.0452342,7.0452342 0 0 0 2.192827,-5.107795 h 0.237777 a 7.0452342,7.0452342 0 0 0 2.157602,5.107795 7.0452342,7.0452342 0 0 0 5.116602,2.192829 v 0.237775 a 7.0452342,7.0452342 0 0 0 -5.116602,2.210443 6.9923949,6.9923949 0 0 0 -2.192822,5.116601 z m -36.54715,7.045235 h -0.361069 a 10.62069,10.62069 0 0 0 -3.328874,-7.76737 10.62069,10.62069 0 0 0 -7.802597,-3.311262 v -0.361066 a 10.629497,10.629497 0 0 0 7.767371,-3.328874 10.64711,10.64711 0 0 0 3.328873,-7.76737 h 0.361069 a 10.638304,10.638304 0 0 0 3.320066,7.76737 10.64711,10.64711 0 0 0 7.776178,3.328874 v 0.361066 a 10.64711,10.64711 0 0 0 -7.776178,3.328874 10.638304,10.638304 0 0 0 -3.320066,7.76737 z"
     id="path8"
     style="fill:#faffff;fill-opacity:1;stroke-width:0.880654" />
</svg>
