<?xml version="1.0" encoding="UTF-8" standalone="no"?>
<!-- Created with Inkscape (http://www.inkscape.org/) -->

<svg
   width="70.509003mm"
   height="54.632999mm"
   viewBox="0 0 70.509003 54.632999"
   version="1.1"
   id="svg5784"
   inkscape:version="1.1.1 (3bf5ae0d25, 2021-09-20)"
   sodipodi:docname="light_online_icon.svg"
   xmlns:inkscape="http://www.inkscape.org/namespaces/inkscape"
   xmlns:sodipodi="http://sodipodi.sourceforge.net/DTD/sodipodi-0.dtd"
   xmlns="http://www.w3.org/2000/svg"
   xmlns:svg="http://www.w3.org/2000/svg">
  <sodipodi:namedview
     id="namedview5786"
     pagecolor="#505050"
     bordercolor="#eeeeee"
     borderopacity="1"
     inkscape:pageshadow="0"
     inkscape:pageopacity="0"
     inkscape:pagecheckerboard="0"
     inkscape:document-units="mm"
     showgrid="false"
     width="70.509mm"
     inkscape:zoom="1.6452273"
     inkscape:cx="167.15016"
     inkscape:cy="133.41622"
     inkscape:window-width="1366"
     inkscape:window-height="768"
     inkscape:window-x="0"
     inkscape:window-y="156"
     inkscape:window-maximized="1"
     inkscape:current-layer="g2442" />
  <defs
     id="defs5781">
    <inkscape:path-effect
       effect="fillet_chamfer"
       id="path-effect2331"
       is_visible="true"
       lpeversion="1"
       satellites_param="F,0,0,1,0,83.135932,0,1 @ F,0,0,1,0,81.964124,0,1 @ F,0,0,1,0,8.2811302,0,1 @ F,0,0,1,0,7.7771265,0,1"
       unit="px"
       method="auto"
       mode="F"
       radius="0"
       chamfer_steps="1"
       flexible="false"
       use_knot_distance="true"
       apply_no_radius="true"
       apply_with_radius="true"
       only_selected="false"
       hide_knots="false" />
    <inkscape:path-effect
       effect="fillet_chamfer"
       id="path-effect2335"
       is_visible="true"
       lpeversion="1"
       satellites_param="F,0,0,1,0,83.135932,0,1 @ F,0,0,1,0,81.964124,0,1 @ F,0,0,1,0,8.2811302,0,1 @ F,0,0,1,0,7.7771265,0,1"
       unit="px"
       method="auto"
       mode="F"
       radius="0"
       chamfer_steps="1"
       flexible="false"
       use_knot_distance="true"
       apply_no_radius="true"
       apply_with_radius="true"
       only_selected="false"
       hide_knots="false" />
    <inkscape:path-effect
       effect="fillet_chamfer"
       id="path-effect2454"
       is_visible="true"
       lpeversion="1"
       satellites_param="F,0,0,1,0,83.135932,0,1 @ F,0,0,1,0,81.964124,0,1 @ F,0,0,1,0,8.2811302,0,1 @ F,0,0,1,0,7.7771265,0,1"
       unit="px"
       method="auto"
       mode="F"
       radius="0"
       chamfer_steps="1"
       flexible="false"
       use_knot_distance="true"
       apply_no_radius="true"
       apply_with_radius="true"
       only_selected="false"
       hide_knots="false" />
    <inkscape:path-effect
       effect="fillet_chamfer"
       id="path-effect2458"
       is_visible="true"
       lpeversion="1"
       satellites_param="F,0,0,1,0,83.135932,0,1 @ F,0,0,1,0,81.964124,0,1 @ F,0,0,1,0,8.2811302,0,1 @ F,0,0,1,0,7.7771265,0,1"
       unit="px"
       method="auto"
       mode="F"
       radius="0"
       chamfer_steps="1"
       flexible="false"
       use_knot_distance="true"
       apply_no_radius="true"
       apply_with_radius="true"
       only_selected="false"
       hide_knots="false" />
  </defs>
  <g
     inkscape:label="Layer 1"
     inkscape:groupmode="layer"
     id="layer1">
    <g
       id="g2319"
       transform="matrix(0.33858843,0,0,0.33858843,-403.99657,198.8464)"
       inkscape:label="online icon"
       style="display:inline;fill:#dfcda7;fill-opacity:1">
      <g
         id="g2442"
         transform="translate(-1.4004562e-5,-1.3685435e-5)"
         inkscape:label="online icon"
         style="display:inline;fill:#ffffff;fill-opacity:1">
        <g
           id="g2438"
           transform="translate(-1.8947891)"
           style="fill:#ffffff;fill-opacity:1">
          <g
             id="g2430"
             inkscape:label="online icon"
             transform="matrix(0.40332344,0,0,0.40332344,848.4643,-312.2013)"
             style="fill:#ffffff;fill-opacity:1">
            <path
               style="fill:#ffffff;fill-opacity:1;stroke:none;stroke-width:0.2;stroke-linecap:round;stroke-opacity:1;paint-order:markers fill stroke"
               id="path2426"
               width="165.12395"
               height="165.12395"
               x="1210.4786"
               y="-447.19281"
               inkscape:path-effect="#path-effect2454"
               sodipodi:type="rect"
               d="m 1293.6146,-447.19281 h 0.024 a 81.964124,81.964124 45 0 1 81.9641,81.96412 v 74.8787 a 8.2811302,8.2811302 135 0 1 -8.2811,8.28113 h -149.0657 a 7.7771265,7.7771265 45 0 1 -7.7772,-7.77713 v -74.21089 a 83.135932,83.135932 135 0 1 83.136,-83.13593 z" />
            <circle
               style="fill:#ffffff;fill-opacity:1;stroke:none;stroke-width:0.171659;stroke-linecap:round;stroke-opacity:1;paint-order:markers fill stroke"
               id="circle2428"
               cx="1293.0406"
               cy="-503.31497"
               r="45.563976" />
          </g>
          <g
             id="g2436"
             inkscape:label="online icon"
             transform="matrix(0.40332344,0,0,0.40332344,706.89991,-312.2013)"
             style="fill:#ffffff;fill-opacity:1">
            <path
               style="fill:#ffffff;fill-opacity:1;stroke:none;stroke-width:0.2;stroke-linecap:round;stroke-opacity:1;paint-order:markers fill stroke"
               id="path2432"
               width="165.12395"
               height="165.12395"
               x="1210.4786"
               y="-447.19281"
               inkscape:path-effect="#path-effect2458"
               sodipodi:type="rect"
               d="m 1293.6146,-447.19281 h 0.024 a 81.964124,81.964124 45 0 1 81.9641,81.96412 v 74.8787 a 8.2811302,8.2811302 135 0 1 -8.2811,8.28113 h -149.0657 a 7.7771265,7.7771265 45 0 1 -7.7772,-7.77713 v -74.21089 a 83.135932,83.135932 135 0 1 83.136,-83.13593 z" />
            <circle
               style="fill:#ffffff;fill-opacity:1;stroke:none;stroke-width:0.171659;stroke-linecap:round;stroke-opacity:1;paint-order:markers fill stroke"
               id="circle2434"
               cx="1293.0406"
               cy="-503.31497"
               r="45.563976" />
          </g>
        </g>
        <path
           style="fill:#ffffff;fill-opacity:1;stroke-width:0.350967"
           d="m 1291.7707,-503.61068 c -11.9576,-1.68587 -22.8055,-8.49006 -29.3756,-18.42549 -3.2386,-4.89745 -5.0557,-9.16418 -6.3767,-14.9731 -0.8131,-3.57566 -0.8131,-13.15682 0,-16.73247 3.8371,-16.87298 16.0554,-29.09128 32.9284,-32.92835 3.5756,-0.81313 13.1568,-0.81313 16.7324,0 14.906,3.38974 26.8158,13.88844 31.4643,27.73637 1.6932,5.04398 2.0497,7.40197 2.0497,13.55821 0,7.89093 -1.1942,12.94224 -4.5807,19.37496 -5.936,11.27545 -16.4189,19.20494 -28.9333,21.88564 -3.0754,0.65879 -10.8207,0.93958 -13.9085,0.50423 z m 2.0326,-14.26583 v -6.19388 l -3.1969,0.20712 c -1.7582,0.11391 -3.2831,0.29338 -3.3886,0.39882 -0.2891,0.28921 1.5645,4.45222 3.1754,7.13114 1.2675,2.10789 3.084,4.65065 3.3224,4.65067 0.048,10e-6 0.088,-2.78723 0.088,-6.19387 z m 10.338,1.68303 c 1.7175,-2.86566 3.5635,-6.97433 3.2669,-7.27097 -0.1055,-0.10544 -1.6303,-0.28491 -3.3886,-0.39882 l -3.1969,-0.20712 0.013,6.28162 0.013,6.28163 0.8733,-1.0529 c 0.4804,-0.5791 1.5694,-2.21415 2.42,-3.63344 z m -20.1651,3.0033 c 0,-0.057 -0.6891,-1.51793 -1.5314,-3.24645 -0.8423,-1.72852 -1.7427,-3.73502 -2.0008,-4.45889 -0.2582,-0.72387 -0.6351,-1.31813 -0.8376,-1.32057 -0.8241,-0.01 -6.5226,1.89606 -6.4322,2.15137 0.4469,1.26193 10.802,7.85205 10.802,6.87454 z m 29.7818,-1.29528 c 2.4424,-1.27064 7.4553,-4.90587 7.6938,-5.57926 0.095,-0.26784 -5.6251,-2.16025 -6.5027,-2.15137 -0.2413,0.002 -0.4401,0.20186 -0.4419,0.44315 0,0.24129 -0.8704,2.23312 -1.9303,4.4263 -1.0599,2.19318 -1.9271,4.04892 -1.9271,4.12387 0,0.29506 0.5204,0.0836 3.1082,-1.26269 z m -41.0546,-12.9907 c 2.2688,-0.77213 4.4016,-1.40387 4.7394,-1.40387 0.421,0 0.5565,-0.19324 0.4306,-0.6142 -0.3605,-1.20555 -1.2443,-6.9781 -1.4778,-9.6516 l -0.2375,-2.72 h -6.7954 -6.7955 v 0.96516 c 0,1.61831 1.2909,6.43456 2.4373,9.12261 1.2292,2.88193 2.854,5.70577 3.2832,5.70577 0.1585,0 2.1444,-0.63174 4.4132,-1.40387 z m 54.9993,-0.43871 c 2.3202,-4.19168 4.3466,-10.23591 4.3536,-12.9858 v -0.96516 h -6.7954 -6.7955 l -0.2375,2.72 c -0.2276,2.60715 -1.1133,8.42913 -1.4596,9.59452 -0.1268,0.42669 0.267,0.65767 1.6825,0.98674 1.0165,0.2363 3.0326,0.88071 4.4804,1.43204 1.4477,0.55132 2.8835,1.01541 3.1907,1.03132 0.3258,0.0169 0.9832,-0.73856 1.5783,-1.81366 z m -37.4968,-2.94851 3.5974,-0.22913 v -5.38666 -5.38666 h -5.3054 -5.3054 l 0.2374,2.36903 c 0.2919,2.91222 1.2253,8.54076 1.4865,8.96339 0.1056,0.17086 0.5295,0.21807 0.942,0.10491 0.4126,-0.11316 2.3689,-0.30886 4.3475,-0.43488 z m 19.5227,0.29939 c 0.2455,-0.39738 1.1855,-6.11882 1.4675,-8.93281 l 0.2374,-2.36903 h -5.3054 -5.3054 v 5.44 5.43999 l 2.1935,0.0308 c 1.2065,0.0169 2.9833,0.15374 3.9484,0.30407 2.5265,0.39351 2.5736,0.39499 2.764,0.087 z m -33.3123,-21.21667 c 0.1344,-1.59252 0.5181,-4.42813 0.8526,-6.30137 l 0.6083,-3.40588 -4.5841,-1.49877 c -2.5211,-0.82433 -4.7529,-1.54837 -4.9595,-1.60898 -0.4255,-0.12486 -1.9512,2.49911 -3.4209,5.88339 -1.0606,2.44223 -2.339,7.27745 -2.343,8.86193 v 0.96516 h 6.8023 6.8024 z m 17.387,-2.32918 v -5.22466 l -1.4916,-0.19993 c -0.8204,-0.10995 -2.8543,-0.3029 -4.5199,-0.42877 l -3.0283,-0.22886 -0.4016,2.30587 c -0.4992,2.86665 -1.0624,7.16117 -1.0767,8.21133 -0.011,0.78431 0.025,0.78968 5.2536,0.78968 h 5.2645 z m 17.5376,4.43498 c -0.014,-1.05016 -0.5776,-5.34468 -1.0768,-8.21133 l -0.4015,-2.30587 -3.0284,0.22886 c -1.6656,0.12587 -3.6995,0.31882 -4.5199,0.42877 l -1.4916,0.19993 v 5.22466 5.22466 h 5.2645 c 5.2287,0 5.2644,-0.005 5.2537,-0.78968 z m 20.7154,-0.17548 c 0,-1.58448 -1.2824,-6.4197 -2.343,-8.86193 -1.4697,-3.38428 -2.9954,-6.00825 -3.4209,-5.88339 -0.2065,0.0606 -2.4384,0.78465 -4.9595,1.60898 l -4.584,1.49877 0.6082,3.40588 c 0.3345,1.87324 0.7182,4.70885 0.8526,6.30137 l 0.2444,2.89548 h 6.8023 6.8024 v -0.96516 z m -38.2569,-22.98837 v -6.40516 l -0.9613,1.20232 c -2.4115,3.01625 -6.1221,10.24928 -5.551,10.82045 0.2487,0.2486 3.036,0.62994 5.3794,0.73594 l 1.1407,0.0516 z m 13.0775,5.82724 c 0.3378,-0.0942 0.6142,-0.33483 0.6142,-0.53466 0,-1.18828 -3.9024,-8.29169 -5.9443,-10.82032 l -0.7085,-0.87742 -0.01,6.4351 -0.01,6.4351 2.72,-0.23324 c 1.496,-0.12828 2.9963,-0.31034 3.3341,-0.40456 z m -26.3871,-2.84891 c 0.234,-0.72118 1.124,-2.70964 1.9778,-4.4188 0.8538,-1.70915 1.4757,-3.18432 1.3818,-3.27815 -0.094,-0.0938 -1.4066,0.47297 -2.9173,1.25954 -2.7159,1.41402 -8.3648,5.59159 -8.0231,5.93329 0.293,0.29308 6.6618,2.08297 6.9178,1.94419 0.1307,-0.0709 0.429,-0.71889 0.663,-1.44007 z m 40.9681,-0.40057 c 0.6599,-0.36929 -4.3291,-4.24844 -7.7639,-6.03684 -1.5108,-0.78657 -2.8191,-1.35785 -2.9075,-1.26951 -0.088,0.0883 0.595,1.72232 1.5184,3.63105 0.9235,1.90872 1.8575,3.96881 2.0755,4.57796 l 0.3965,1.10754 3.1091,-0.87561 c 1.71,-0.4816 3.3174,-0.99216 3.5719,-1.13459 z"
           id="path2440" />
      </g>
    </g>
  </g>
</svg>
