<?xml version="1.0" encoding="UTF-8" standalone="no"?>
<svg
   version="1.1"
   id="Layer_1"
   x="0px"
   y="0px"
   viewBox="0 0 204.66 204.66"
   xml:space="preserve"
   sodipodi:docname="light_theme_icon.svg"
   inkscape:version="1.1.1 (3bf5ae0d25, 2021-09-20)"
   width="204.66"
   height="204.66"
   xmlns:inkscape="http://www.inkscape.org/namespaces/inkscape"
   xmlns:sodipodi="http://sodipodi.sourceforge.net/DTD/sodipodi-0.dtd"
   xmlns="http://www.w3.org/2000/svg"
   xmlns:svg="http://www.w3.org/2000/svg"><defs
     id="defs3547" /><sodipodi:namedview
     id="namedview3545"
     pagecolor="#505050"
     bordercolor="#eeeeee"
     borderopacity="1"
     inkscape:pageshadow="0"
     inkscape:pageopacity="0"
     inkscape:pagecheckerboard="0"
     showgrid="false"
     inkscape:zoom="2.9958333"
     inkscape:cx="76.773297"
     inkscape:cy="108.48401"
     inkscape:window-width="1837"
     inkscape:window-height="1051"
     inkscape:window-x="1366"
     inkscape:window-y="0"
     inkscape:window-maximized="1"
     inkscape:current-layer="Layer_1"
     width="204.66px" /><path
     d="m 100.97427,174.66868 c -3.632707,0 -6.575487,2.94111 -6.575487,6.57381 v 16.84177 c 0,3.63271 2.94278,6.57549 6.575487,6.57549 3.6327,0 6.57381,-2.94278 6.57381,-6.57549 v -16.84177 c 0,-3.6327 -2.94111,-6.57381 -6.57381,-6.57381 z"
     id="path5910"
     style="stroke-width:0.852748;fill:#00060d;fill-opacity:1" /><path
     d="m 141.05842,164.81044 c -1.26024,-0.0868 -2.55885,0.18827 -3.73245,0.8694 -3.12958,1.81636 -4.20305,5.83426 -2.38669,8.96385 l 8.42422,14.58166 c 1.81635,3.13811 5.83426,4.20305 8.96384,2.38669 3.12959,-1.81635 4.20305,-5.8326 2.3867,-8.96218 l -8.42422,-14.58166 c -1.13522,-1.96132 -3.13102,-3.11311 -5.2314,-3.25776 z"
     id="path5908"
     style="stroke-width:0.852748;fill:#00060d;fill-opacity:1" /><path
     d="m 61.229884,163.47302 c -2.095978,0.15306 -4.080198,1.30844 -5.20476,3.26443 l -8.424217,14.58332 c -1.799297,3.13812 -0.716241,7.13623 2.413344,8.93554 3.138112,1.79929 7.137899,0.71624 8.937197,-2.41334 l 8.424218,-14.58166 c 1.799298,-3.13811 0.716241,-7.1379 -2.413343,-8.9372 -1.176793,-0.67474 -2.474852,-0.94292 -3.732439,-0.85109 z"
     id="path5906"
     style="stroke-width:0.852748;fill:#00060d;fill-opacity:1" /><path
     d="m 169.52887,136.43159 c -2.09598,0.15306 -4.0802,1.3101 -5.20476,3.26609 -1.7993,3.13811 -0.71624,7.1379 2.41334,8.9372 l 14.58332,8.42422 c 3.13812,1.7993 7.13623,0.71624 8.93554,-2.41335 1.79929,-3.13811 0.71624,-7.1379 -2.41334,-8.9372 l -14.58166,-8.42422 c -1.17679,-0.67473 -2.47485,-0.94458 -3.73244,-0.85274 z"
     id="path5904"
     style="stroke-width:0.852748;fill:#00060d;fill-opacity:1" /><path
     d="m 33.74875,134.07155 c -1.260235,-0.0879 -2.558843,0.18659 -3.732438,0.86773 l -14.581657,8.42422 c -3.138112,1.81635 -4.203048,5.83426 -2.386694,8.96384 1.816353,3.12959 5.832596,4.20305 8.962181,2.3867 l 14.581656,-8.42422 c 3.138112,-1.81635 4.204714,-5.83426 2.388361,-8.96385 -1.135221,-1.95599 -3.131017,-3.10802 -5.231409,-3.25442 z"
     id="path5902"
     style="stroke-width:0.852748;fill:#00060d;fill-opacity:1" /><path
     d="m 181.24249,97.111923 c -3.6327,0 -6.57381,2.941107 -6.57381,6.573807 0,3.63271 2.94111,6.57549 6.57381,6.57549 h 16.84177 c 3.63271,0 6.57549,-2.94278 6.57549,-6.57549 0,-3.6327 -2.94278,-6.573807 -6.57549,-6.573807 z"
     id="path5900"
     style="stroke-width:0.852748;fill:#00060d;fill-opacity:1" /><path
     d="m 6.575737,94.398783 c -3.632706,0 -6.575486,2.94278 -6.575486,6.575487 0,3.6327 2.94278,6.57381 6.575486,6.57381 h 16.841772 c 3.632706,0 6.57382,-2.94111 6.57382,-6.57381 0,-3.632707 -2.941114,-6.575487 -6.57382,-6.575487 z"
     id="path5898"
     style="stroke-width:0.852748;fill:#00060d;fill-opacity:1" /><path
     d="m 186.3823,49.078226 c -1.26024,-0.08784 -2.55885,0.186606 -3.73244,0.867738 l -14.58166,8.424217 c -3.13811,1.816353 -4.20471,5.834261 -2.38836,8.963847 1.81636,3.129585 5.83426,4.203048 8.96385,2.386695 l 14.58166,-8.424218 c 3.13811,-1.816353 4.20305,-5.834261 2.38669,-8.963846 -1.13522,-1.95599 -3.12935,-3.108033 -5.22974,-3.254433 z"
     id="path5896"
     style="stroke-width:0.852748;fill:#00060d;fill-opacity:1" /><path
     d="m 19.608457,46.748159 c -2.095978,0.153062 -4.080199,1.310101 -5.20476,3.266092 -1.799298,3.138112 -0.716242,7.137899 2.413343,8.937197 l 14.581656,8.424218 c 3.138112,1.799298 7.1379,0.716241 8.937198,-2.413343 1.799298,-3.138113 0.716242,-7.137901 -2.413343,-8.937199 L 23.33923,47.600907 c -1.176793,-0.674736 -2.473186,-0.944585 -3.730773,-0.852748 z"
     id="path5894"
     style="stroke-width:0.852748;fill:#00060d;fill-opacity:1" /><path
     id="path5892"
     style="stroke-width:0.889751;fill:#00060d;fill-opacity:1"
     d="M 102.33008 41.087891 C 85.424801 41.087891 70.111694 47.947986 59.025391 59.025391 C 47.939089 70.111694 41.087891 85.415911 41.087891 102.33008 C 41.087891 119.24425 47.947986 134.54847 59.025391 145.63477 C 70.111694 156.72107 85.415911 163.57227 102.33008 163.57227 C 119.24425 163.57227 134.54847 156.72107 145.63477 145.63477 C 156.72107 134.54847 163.57227 119.24425 163.57227 102.33008 C 163.57227 85.424801 156.71217 70.111694 145.63477 59.025391 C 134.54847 47.939089 119.24425 41.087891 102.33008 41.087891 z M 102.33008 55.875 A 46.45422 46.45422 0 0 1 148.78516 102.33008 A 46.45422 46.45422 0 0 1 102.33008 148.78516 A 46.45422 46.45422 0 0 1 55.875 102.33008 A 46.45422 46.45422 0 0 1 102.33008 55.875 z " /><path
     d="m 150.91332,13.550949 c -2.09598,0.153061 -4.0802,1.3101 -5.20477,3.266091 l -8.42422,14.581656 c -1.79929,3.138112 -0.71624,7.1379 2.41335,8.937198 3.13811,1.799298 7.1379,0.716242 8.9372,-2.413343 L 157.0591,23.33923 c 1.7993,-3.138113 0.71624,-7.136235 -2.41335,-8.935533 -1.17679,-0.674737 -2.47485,-0.944585 -3.73243,-0.852748 z"
     id="path5890"
     style="stroke-width:0.852748;fill:#00060d;fill-opacity:1" /><path
     d="m 56.065097,12.176892 c -1.260235,-0.08679 -2.558843,0.189936 -3.732438,0.871069 -3.129585,1.816353 -4.203048,5.832596 -2.386695,8.962181 l 8.424217,14.581656 c 1.816353,3.138112 5.834261,4.204714 8.963847,2.388361 3.129585,-1.816353 4.203048,-5.834262 2.386695,-8.963847 L 61.296505,15.434655 c -1.135221,-1.96132 -3.131017,-3.113112 -5.231408,-3.257763 z"
     id="path5888"
     style="stroke-width:0.852748;fill:#00060d;fill-opacity:1" /><path
     d="m 103.68573,2.51e-4 c -3.6327,0 -6.573807,2.94278 -6.573807,6.575486 v 16.841772 c 0,3.632706 2.941107,6.57382 6.573807,6.57382 3.63271,0 6.57549,-2.941114 6.57549,-6.57382 V 6.575737 c 0,-3.632706 -2.94278,-6.575486 -6.57549,-6.575486 z"
     id="path3540"
     style="stroke-width:0.852748;fill:#00060d;fill-opacity:1" /></svg>
