<?xml version="1.0" encoding="UTF-8" standalone="no"?>
<!-- Created with Inkscape (http://www.inkscape.org/) -->

<svg
   width="100.334"
   height="100.334"
   viewBox="0 0 26.546704 26.546705"
   version="1.1"
   id="svg3553"
   xmlns="http://www.w3.org/2000/svg"
   xmlns:svg="http://www.w3.org/2000/svg">
  <defs
     id="defs3550" />
  <g
     id="layer1">
    <path
       id="circle12955-3"
       style="display:inline;fill:#d06310;fill-opacity:1;stroke-width:0.467521;paint-order:markers fill stroke"
       d="M 13.273093,2.8348868e-6 A 13.273153,13.273153 0 0 0 3.0848865e-6,13.273611 13.273153,13.273153 0 0 0 13.273093,26.546701 13.273153,13.273153 0 0 0 26.546701,13.273611 13.273153,13.273153 0 0 0 13.273093,2.8348868e-6 Z m 0,3.0545933651132 A 10.218924,10.218924 0 0 1 23.492107,13.273611 10.218924,10.218924 0 0 1 13.273093,23.492108 10.218924,10.218924 0 0 1 3.0545964,13.273611 10.218924,10.218924 0 0 1 13.273093,3.0545962 Z" />
  </g>
</svg>
