<?xml version="1.0" encoding="UTF-8" standalone="no"?>
<!-- Created with Inkscape (http://www.inkscape.org/) -->

<svg
   width="430.961"
   height="390.18799"
   viewBox="0 0 114.02509 103.23724"
   version="1.1"
   id="svg128391"
   inkscape:version="1.1.1 (3bf5ae0d25, 2021-09-20)"
   sodipodi:docname="light_restart_icon.svg"
   xmlns:inkscape="http://www.inkscape.org/namespaces/inkscape"
   xmlns:sodipodi="http://sodipodi.sourceforge.net/DTD/sodipodi-0.dtd"
   xmlns="http://www.w3.org/2000/svg"
   xmlns:svg="http://www.w3.org/2000/svg">
  <sodipodi:namedview
     id="namedview128393"
     pagecolor="#505050"
     bordercolor="#eeeeee"
     borderopacity="1"
     inkscape:pageshadow="0"
     inkscape:pageopacity="0"
     inkscape:pagecheckerboard="0"
     inkscape:document-units="mm"
     showgrid="false"
     units="px"
     inkscape:zoom="0.66368547"
     inkscape:cx="219.23035"
     inkscape:cy="450.51461"
     inkscape:window-width="1837"
     inkscape:window-height="1051"
     inkscape:window-x="1366"
     inkscape:window-y="0"
     inkscape:window-maximized="1"
     inkscape:current-layer="layer1" />
  <defs
     id="defs128388" />
  <g
     inkscape:label="Layer 1"
     inkscape:groupmode="layer"
     id="layer1">
    <path
       id="path128273"
       style="fill:#07444b;fill-opacity:0.8509804;stroke:none;stroke-width:3.63342;stroke-linecap:square;stroke-linejoin:miter;stroke-miterlimit:4;stroke-dasharray:none;stroke-opacity:0.988887;paint-order:markers fill stroke"
       d="M 13.706948,-4.221696e-5 C 6.1133375,-4.221696e-5 -1.5380025e-6,6.1128118 -1.5380025e-6,13.706512 v 75.823839 c 0,7.59365 6.1133390380025,13.706929 13.7069495380025,13.706929 h 75.030893 c 7.59358,0 13.706569,-6.113279 13.706569,-13.706929 v -20.49227 a 2.3636709,2.3636674 0 0 0 -2.36371,-2.36368 h -3.448719 a 2.3636709,2.3636674 0 0 0 -2.36363,2.36368 v 17.45322 c 0,4.98194 -4.01069,8.993 -8.99259,8.993 H 17.169043 c -4.981927,0 -8.9929625,-4.01106 -8.9929625,-8.993 V 16.745543 c 0,-4.981945 4.0110355,-8.9926052 8.9929625,-8.9926052 h 68.106718 c 4.9819,0 8.99259,4.0106602 8.99259,8.9926052 v 19.424568 h -10.39288 a 1.1880289,1.1880272 0 0 0 -0.83994,2.02806 l 13.44344,13.44382 a 2.6550135,2.6550096 0 0 0 3.754739,0 l 13.44345,-13.44382 a 1.188028,1.1880263 0 0 0 -0.83992,-2.02806 H 102.44441 V 13.706512 c 0,-7.5937002 -6.112989,-13.70655421696 -13.706569,-13.70655421696 z" />
  </g>
</svg>
